<?xml version="1.0" encoding="utf-8"?>
<!-- Generator: Adobe Illustrator 22.1.0, SVG Export Plug-In . SVG Version: 6.00 Build 0)  -->
<svg version="1.1" id="Layer_1" xmlns="http://www.w3.org/2000/svg" xmlns:xlink="http://www.w3.org/1999/xlink" x="0px" y="0px"
	 viewBox="0 0 264.3 414.9" style="enable-background:new 0 0 264.3 414.9;" xml:space="preserve">
<style type="text/css">
	.st0{fill:#1B75BC;}
	.st1{fill:none;stroke:#000000;stroke-width:0.2351;stroke-miterlimit:10;}
	.st2{fill:#5D5E3D;}
	.st3{fill:#F6F8E0;}
	.st4{fill:#E8C197;}
	.st5{fill:#9F9C6A;}
	.st6{fill:#494A2E;}
	.st7{fill:#373920;}
	.st8{fill:#4F4F23;}
</style>
<path class="st0" d="M995.9-431c0,0,0.4,1.2-2,3.6c-0.6,0.6-1.3,1-1.8,1.7c-0.5,0.8-0.7,1.7,0.3,2.1c0.9,0.4,1.9,0.1,2.5-0.6
	C996-425.5,997.3-427.9,995.9-431z"/>
<path class="st0" d="M992.9-464.1c0,0-1.2-0.1-2.9,2.9c-0.4,0.7-0.6,1.6-1.2,2.2c-0.6,0.7-1.4,1.1-2.1,0.3c-0.6-0.7-0.6-1.8-0.1-2.6
	C987.5-462.7,989.5-464.7,992.9-464.1z"/>
<path class="st0" d="M991.7-442.2c0,0,0,4.2-3.5,5.5C988.2-436.8,985.3-438.1,991.7-442.2z"/>
<path class="st1" d="M95.8,25.7c-2.2,8.4,1.7,17,2.4,25.7c0.2,2.3,0.1,4.6,0.8,6.8c0.7,2.4,2.3,4.5,3.6,6.7
	c4.6,7.3,7.2,15.8,7.4,24.4c0,1.5-0.1,2.9-0.4,4.4c-0.4,1.5-1,3.2-2.3,4.1c-1.2,0.8-3.2,0.8-4-0.5c-0.5-0.8-0.5-1.7-0.4-2.7
	c0.1-1.1,0.4-2.2,1-3.1c0.6-0.9,1.7-1.6,2.8-1.4c0.7,0.1,1.3,0.5,1.9,0.9c2.2,1.6,4,3.8,5.3,6.2c0.6,1.2,1.4,2.2,2.3,3.2
	c2.6,3.1,3,7.6,4.1,11.7c1.1,4.4,2.1,8.7,3.2,13.1c0.8,4.1,2,8.1,2.7,12.2c0.3,2,0.5,4,1,6c0.6,2.2,1.5,4.2,2.3,6.3
	c3.5,9.1,5,18.7,6.5,28.3c0.5,3.2,0,6.6,0,9.9c0.1,6.3,0.3,12.8,2.8,18.5c0.6,1.3,1.3,3.6,1.4,5"/>
<path class="st1" d="M51,218c1.7-1.9,4.2-3,6.5-4.1s4.8-2.3,6.2-4.4c1.5-2.1,1.7-5.4-0.3-7.1c-0.6-0.5-1.3-0.8-2.1-0.7
	c-1,0.2-1.6,1.3-2.1,2.2c-0.3,0.6-0.6,1.2-0.4,1.8c0.2,0.9,1.1,1.4,2,1.4c0.9-0.1,1.7-0.6,2.3-1.3c4.1-4.3,2.1-12.1,6.1-16.4
	c8-8.5,23.3-6.7,33.6-1.1c2.5,1.4,4.8,3.1,7.1,4.8c1.4,1.1,2.9,2.1,4.3,3.2c2.5,1.9,3.4,5.5,5.8,7.4c0.6,0.5,1.4,0.9,2.1,1.4
	c1.9,1.3,3.3,3.3,4.1,5.5c0.2,0.6,0.5,1.9,0.9,2.5"/>
<path class="st1" d="M129.3,206.8c-1.7,1.4-2.6,4.1-2.3,6.3"/>
<path class="st2" d="M151.1,204.4c0,0-2.6-8.7-6.4-14c0,0-4.9-8.2-4-15.8c0,0,1.6,4.5,3.3,5.3C143.9,180,154,189.2,151.1,204.4z"/>
<path class="st1" d="M186.7,165.1c-1.8,2.1-3.9,3.9-5.6,6.1c-0.7,0.9-1.4,1.8-2.2,2.6c-0.9,0.8-1.9,1.5-2.9,2.2
	c-1.8,1.2-3.6,2.4-5.4,3.6c-1.3,0.9-2.6,1.7-3.7,2.7c-1.4,1.2-2.6,2.6-3.8,3.9c-5.7,6.7-11,14.8-14.1,23.1"/>
<path class="st3" d="M217.9,406.5c0,0,24.1-34,2.9-84.3c0,0-2-60.2,2.9-64c0,0-7.7-1-12.8,0c0,0-4.4,40-3.7,61.9
	c0.1,2.3-0.9,4.4-2.7,5.8c-9.5,7.6-41.1,32.1-61.8,42.5c-4.8,2.4-10.5,2.1-15-0.8c-14.3-9.4-48-31.9-64.3-47.1
	c-3.3-3.1-5.3-7.4-5.4-11.9c-0.4-13.9-0.8-45.2,4.3-50.1c0.3-0.2,0.1-0.7-0.3-0.7c-3.1,0-10.9,0.5-14.2,5.8
	c-0.3,0.4-0.4,0.9-0.4,1.4c-0.2,5.8-1,43,1.8,50.8c0,0-23.1,52.5,7.9,90.8h153.8H217.9z"/>
<path class="st4" d="M10.5,355.6c3.4-25.8,14.3-90.7,37.2-92.1c0,0-2.7,33.1,1.4,52.2c0,0-17.6,40-1.9,74.7c0,0-19.3,17.5-33.3-11.9
	C10.6,371.4,9.5,363.4,10.5,355.6z"/>
<path class="st4" d="M223.8,258.4c2.5,1.7,31.6,23.1,33.3,68.6c0,0,3.2,25.3,6.5,38.2c2.1,8.3-0.5,17.1-7.2,22.5
	c-6.4,5.1-16.8,9.6-33.8,9.8c0,0,16.7-31.5-1.9-75.1c0,0-3.2-57.8,2.7-63.9C223.6,258.3,223.7,258.3,223.8,258.4z"/>
<path class="st4" d="M62.2,258.4c0,0,30.6-4.9,43.2-16.9v-35.6c0,0,14.5,18.5,60.8-3.7c0,0,7.2,16.1,7.8,35.9
	c0,0,17.2,9.3,24.3,14.9c3.6,2.8,7.8,4.7,12.3,5.4l0.2,0c0,0-4.7,45.6-3.7,61.9c0,0,0,3.7-2.7,5.8c0,0-42.7,34-61.8,42.5
	c0,0-6.5,3.6-13.5,0c0,0-43.7-27.9-65.8-47.9c0,0-5.3-4.9-5.4-11.9C57.9,308.5,55.9,265.2,62.2,258.4z"/>
<path class="st1" d="M103.1,258.4c0,0,3.4-4.9,2.7-13.8c-0.2-2.6-0.4-5.2-0.4-7.8c0-8.8,0-27.3,0-30.9"/>
<path class="st1" d="M175,249.9c0,0-1.6-4.4-1.2-10.5c0.1-1,0.1-2.1,0.1-3.1c-0.3-5.3-1.8-22.3-7.7-34.2"/>
<path class="st5" d="M79.4,238c0.3,0.9,1.5,0.9,1.9,0.1c2.9-5.9,11.5-22.3,21.1-26.6c0,0,8.1-6.2,18.7,1.2c0,0,3.6,0.5,6,0.3
	c0,0-8.3-14.5-30.4-10.2c-3.6,0.7-7,2.3-9.8,4.8C81.2,212.6,73.5,222.8,79.4,238z"/>
<path class="st6" d="M50.9,217.8c0,0-7.3,19.7-2,26.3c0.9,1.1,2.5,0.9,3.2-0.3C53.5,241.3,54.6,234.8,50.9,217.8z"/>
<path class="st6" d="M51,217.9c0,0-14.7,8.1-14.9,14.6c0,1.5,1.4,2.5,2.8,2.1C41.5,233.8,46.3,230.5,51,217.9z"/>
<path class="st6" d="M50.8,217.7c0,0,3.3,12.6,5.6,11.6C56.4,229.3,61.4,229.1,50.8,217.7z"/>
<path class="st6" d="M51.1,218c0,0-5.3-5.9-10.3-4.9c-0.8,0.2-1.3,1.1-0.8,1.8C40.8,216.2,43.3,218.1,51.1,218z"/>
<path class="st7" d="M195.2,147c-1.2,3.7-5.2,15.8-8.8,18.2c0,0,16.6-2.8,9.6-18.3C195.8,146.6,195.3,146.6,195.2,147z"/>
<path class="st7" d="M186.4,165.2c0,0,13.4,11.3,19.9,13.4c1,0.3,2.1-0.5,2-1.6c-0.2-3-3.2-9.1-17.7-14
	C190.6,163,188.8,164.7,186.4,165.2z"/>
<path class="st7" d="M187.5,164.1c0,0,22.2-6.9,29.9,3.6c0.4,0.5,0.4,1.2,0.1,1.7c-0.6,0.9-2.3,1.7-7.2-0.6
	c-3.7-1.7-7.6-2.9-11.7-3.5C195.9,165,192.1,164.5,187.5,164.1z"/>
<path class="st2" d="M95.8,26.3c0,0,5.3-19.3-1.2-20C94.6,6.2,88.7,3.9,95.8,26.3z"/>
<path class="st8" d="M96.7,42.4c0,0-7.1-11.2-13.5-16.8c0,0-2.3-3.2,1.4-1.2c1.4,0.7,2.6,1.7,3.7,2.8C91,30.1,96.2,36.3,96.7,42.4z"
	/>
<path class="st1" d="M140.1,210.3"/>
<path class="st7" d="M135.8,178c0,0,1.7-11,12.2-19c0,0,1.5-1.6-0.9-1.1c-1.3,0.3-2.5,0.8-3.6,1.5C140.6,161.5,134.7,167,135.8,178z
	"/>
<path class="st8" d="M99,58.1c0,0,5.8-13.2,5.2-18.1c-0.1-0.5-0.5-0.9-0.9-0.9c-1.4,0-4.5,1-5.4,9.6c0,0,0.1,2.8,0.3,5.1
	C98.1,53.8,98.4,57.2,99,58.1z"/>
<path class="st8" d="M97.9,48.7c0,0-12.9-11.6-15.9-9.6c0,0-2.2,1.7,3.9,6.5c0,0,11.4,9.2,12.5,9.1L97.9,48.7z"/>
<path class="st8" d="M95.9,39.1c0,0,2.8-6.6,6.6-11.7c0,0,0.7-3.1-1.9-1.8c-1.1,0.6-2,1.6-2.6,2.7C96.8,30.4,95.2,34.5,95.9,39.1z"
	/>
<path class="st8" d="M96.7,42.4l0.1,0.4c0,0-0.7-4-0.8-4.1l-0.3,0.4L96.7,42.4z"/>
</svg>
