<?xml version="1.0" encoding="utf-8"?>
<!-- Generator: Adobe Illustrator 22.1.0, SVG Export Plug-In . SVG Version: 6.00 Build 0)  -->
<svg version="1.1" id="Layer_1" xmlns="http://www.w3.org/2000/svg" xmlns:xlink="http://www.w3.org/1999/xlink" x="0px" y="0px"
	 viewBox="0 0 235.5 167.7" style="enable-background:new 0 0 235.5 167.7;" xml:space="preserve">
<style type="text/css">
	.st0{fill:#F5CE69;}
	.st1{fill:#F5CC3E;stroke:#000000;stroke-width:0.2351;stroke-miterlimit:10;}
	.st2{fill:#F5CE69;stroke:#000000;stroke-width:0.2351;stroke-miterlimit:10;}
	.st3{fill:#ECC53C;stroke:#000000;stroke-width:0.2351;stroke-miterlimit:10;}
	.st4{fill:none;stroke:#000000;stroke-width:0.2351;stroke-miterlimit:10;}
</style>
<path class="st0" d="M0.2,103c0,0-3.8,11.2,18.6,40.3c0,0,16.3,22.8,20.3,23.9c0,0-2-17-9.8-29C29.3,138.3,21.2,122,0.2,103z"/>
<path class="st1" d="M0.2,103c0,0,36.1,31.2,38.6,63.2c0,0,0.8,5.8,4.5-5.2c0,0,7.5-30.6,7.7-40.2c0,0,3-4.3,22.4-12.9
	c2-0.9,4-1.9,5.9-3.1c7.7-4.8,29.2-17.6,41.6-20.2c0,0,20.6,49.1,22.6,50.4c0,0,25.5,9.4,51.3-1.1c0,0,27.5-12.1,40.6-30.1
	c0,0-35.3-92.9-50.1-103.7c0,0-28.1,23.9-35,24.9c0,0-26.2,9.8-45.8,11.1c0,0,10.9,37.3,14.3,41.5c0,0-68.1,27.3-74.8,28
	C44.1,105.5,2.8,104.8,0.2,103z"/>
<path class="st2" d="M104.6,36c0,0,31.7-24.2,80.8-36c0,0-25.2,21.5-35,24.9C150.4,24.9,119.4,35.6,104.6,36z"/>
<path class="st3" d="M189.2,23.4l4.8-10.1c0,0,27.3,9.7,32.2,30.5c0,0,4,17.4-10.4,33c-0.4,0.4-0.9,0.6-1.4,0.6
	c-1.6-0.1-4.4-0.8-2.5-5c0,0,0.9-2,0.7-4.5c-0.1-1.6-0.1-3.2,0.1-4.8c0.5-2.9,1.7-7.1,4.4-8.9C217,54.1,221.6,40.1,189.2,23.4z"/>
<path class="st4" d="M44.1,105.5c0,0,5.9,4.5,5.6,8"/>
<path class="st4" d="M6.1,112.9c0,0.7,0.3,1.5,0.8,2"/>
<path class="st4" d="M12.1,125.5c0.9,0.1,1.2,1.3,1.2,2.2"/>
<path class="st4" d="M19.3,135.3c0,0.3,0.3,0.6,0.6,0.6"/>
<path class="st4" d="M23.6,139.2c1.4,0,2.6,1.2,2.6,2.6"/>
<path class="st4" d="M30.1,151.6c0.9-0.1,1.7,1,1.4,1.8"/>
</svg>
